<svg width="256" height="256" xmlns="http://www.w3.org/2000/svg">
 <defs>
  <linearGradient y2="1" x2="1" y1="0" x1="0" id="svg_6">
   <stop offset="0" stop-opacity="0.99609" stop-color="#f2ba13"/>
   <stop offset="1" stop-color="#bc4343"/>
   <stop offset="NaN" stop-opacity="0" stop-color="0"/>
   <stop offset="NaN" stop-opacity="0" stop-color="0"/>
  </linearGradient>
 </defs>
 <g>
  <title>Layer 1</title>
  <ellipse ry="101" rx="101" id="svg_2" cy="128" cx="128" fill="url(#svg_6)"/>
  <g>
   <g>
    <path fill="#ffffff" d="m116.334,154.352c6.151,3.507 10.299,10.125 10.299,17.713c0,11.252 -9.123,20.375 -20.375,20.375s-20.375,-9.123 -20.375,-20.375c0,-7.438 3.986,-13.944 9.938,-17.502c-0.581,-12.169 0.074,-37.095 0.193,-46.967c-6.102,-3.52 -10.209,-10.111 -10.209,-17.661c0,-11.253 9.123,-20.375 20.375,-20.375c11.253,0 20.376,9.122 20.376,20.375c0,7.558 -4.116,14.155 -10.228,17.672l0,23.932c7.833,-2.279 15.63,-2.077 22.951,-1.887c3.04,0.079 5.972,0.156 8.801,-0.066c5.989,-0.471 10.397,-4.068 10.645,-21.415c-6.687,-3.342 -11.28,-10.252 -11.28,-18.236c0,-11.253 9.122,-20.375 20.376,-20.375c11.252,0 20.374,9.122 20.374,20.375c0,7.131 -3.664,13.406 -9.212,17.046c-0.143,34.434 -12.448,41.495 -29.317,42.821c-3.343,0.263 -7.034,0.167 -10.862,0.067c-7.579,-0.198 -15.893,-0.415 -22.476,3.804c0,0.223 0.003,0.45 0.006,0.679l0,0zm51.487,-72.104c4.244,0 7.686,3.441 7.686,7.686c0,4.245 -3.441,7.687 -7.686,7.687c-4.246,0 -7.688,-3.442 -7.688,-7.687c0,-4.244 3.442,-7.686 7.688,-7.686l0,0zm-61.641,0c4.245,0 7.687,3.441 7.687,7.686c0,4.245 -3.441,7.687 -7.687,7.687s-7.686,-3.442 -7.686,-7.687c0,-4.244 3.441,-7.686 7.686,-7.686l0,0zm0.077,82.129c4.245,0 7.687,3.442 7.687,7.688s-3.441,7.686 -7.687,7.686s-7.687,-3.44 -7.687,-7.686s3.442,-7.688 7.687,-7.688l0,0z" clip-rule="evenodd" fill-rule="evenodd"/>
   </g>
  </g>
 </g>
</svg>